# xmcd
#
# Track frame offsets: 
#        150
#        8330
#        20223
#        31097
#        41640
#        53442
#        63627
#        73128
#        75307
#        90147
#        101195
#        113754
#        125007
#        134348
#        146375
#        158420
#        170658
#        184939
#        195488
#        209301
#        219470
#        231209
#        245887
#        257128
#        267626
#        278734
#        291682
#        303845
#        314809
#        324714
#
# Disc length: 4445 seconds
#
# Revision: 0
# Processed by: cddbd v1.5.2PL0 Copyright (c) Steve Scherf et al.
# Submitted via: ExactAudioCopyFreeDBPlugin 1.0
#
DISCID=be115b1e
DTITLE=J.B. Lenoir - I Wanna Play A Little While
DYEAR=2014
DGENRE=Blues
TTITLE0=Five Years
TTITLE1=Daddy Talk To Your Son
TTITLE2=She Don't Know
TTITLE3=Back Door
TTITLE4=Lou Ella
TTITLE5=Oh Baby
TTITLE6=Do What I Say
TTITLE7=Move To Kansas City
TTITLE8=I Been Down So Long
TTITLE9=I Have Married
TTITLE10=Slow Down Woman
TTITLE11=Johnny Shines - Livin' In The Whitehouse
TTITLE12=Johnny Shines - Please Don't
TTITLE13=Sunnyland Slim - When I Was Young
TTITLE14=Sunnyland Slim - Bassology 
TTITLE15=Sunnyland Slim - Worried About My Baby
TTITLE16=We've Both Got To Realise (We Can't Go On This Way)
TTITLE17=Give Me One More Shot
TTITLE18=Sitting Down Thinking
TTITLE19=I'm Gonna Die Someday
TTITLE20=Natural Man
TTITLE21=Don't Dog Your Woman
TTITLE22=Low Down Dirty Shame
TTITLE23=Everybody Want To Know (Laid Off Blues)
TTITLE24=J.B.'s Rock
TTITLE25=If You Love Me
TTITLE26=When I Am Drinking
TTITLE27=I Don't Know
TTITLE28=Good Looking Woman
TTITLE29=Voodoo Boogie
EXTD=
EXTT0=
EXTT1=
EXTT2=
EXTT3=
EXTT4=
EXTT5=
EXTT6=
EXTT7=
EXTT8=
EXTT9=
EXTT10=
EXTT11=
EXTT12=
EXTT13=
EXTT14=
EXTT15=
EXTT16=
EXTT17=
EXTT18=
EXTT19=
EXTT20=
EXTT21=
EXTT22=
EXTT23=
EXTT24=
EXTT25=
EXTT26=
EXTT27=
EXTT28=
EXTT29=
PLAYORDER=
